HIERARCHY
ROOT Hips
{
  OFFSET 45.8883 96.5618 7.64562
  CHANNELS 6 Xposition Yposition Zposition Zrotation Xrotation Yrotation
  JOINT spine
  {
    OFFSET 0 7.96568 0.458067
    CHANNELS 3 Zrotation Xrotation Yrotation
    JOINT spine1
    {
      OFFSET 0 10.2431 0
      CHANNELS 3 Zrotation Xrotation Yrotation
      JOINT spine2
      {
        OFFSET 0 9.81475 0
        CHANNELS 3 Zrotation Xrotation Yrotation
        JOINT Neck
        {
          OFFSET 0 25.1986 1.20138
          CHANNELS 3 Zrotation Xrotation Yrotation
          JOINT Head
          {
            OFFSET 0 7.61315 0
            CHANNELS 3 Zrotation Xrotation Yrotation
            End Site
            {
              OFFSET 0 18.4281 -6.07733
            }
          }
        }
        JOINT RightShoulder
        {
          OFFSET -4.1327 10.5992 -0.575451
          CHANNELS 3 Zrotation Xrotation Yrotation
          JOINT RightArm
          {
            OFFSET 0 13.9018 0
            CHANNELS 3 Zrotation Xrotation Yrotation
            JOINT RightArmRoll
            {
              OFFSET 0 7.01789 0
              CHANNELS 3 Zrotation Xrotation Yrotation
              JOINT RightForeArm
              {
                OFFSET 0 20.4406 0
                CHANNELS 3 Zrotation Xrotation Yrotation
                JOINT RightForeArmRoll
                {
                  OFFSET 0 7.87516 0
                  CHANNELS 3 Zrotation Xrotation Yrotation
                  JOINT RightHand
                  {
                    OFFSET 0 15.8037 0
                    CHANNELS 3 Zrotation Xrotation Yrotation
                    End Site
                    {
                      OFFSET 0 0 0
                    }
                  }
                }
              }
            }
          }
        }
        JOINT LeftShoulder
        {
          OFFSET 4.1327 10.5992 -0.575451
          CHANNELS 3 Zrotation Xrotation Yrotation
          JOINT LeftArm
          {
            OFFSET 0 13.9018 0
            CHANNELS 3 Zrotation Xrotation Yrotation
            JOINT LeftArmRoll
            {
              OFFSET 0 7.01788 0
              CHANNELS 3 Zrotation Xrotation Yrotation
              JOINT LeftForeArm
              {
                OFFSET 0 20.4406 0
                CHANNELS 3 Zrotation Xrotation Yrotation
                JOINT LeftForeArmRoll
                {
                  OFFSET 0 7.87515 0
                  CHANNELS 3 Zrotation Xrotation Yrotation
                  JOINT LeftHand
                  {
                    OFFSET 0 15.8037 0
                    CHANNELS 3 Zrotation Xrotation Yrotation
                    End Site
                    {
                      OFFSET 0 0 0
                    }
                  }
                }
              }
            }
          }
        }
      }
    }
  }
  JOINT RightUpLeg
  {
    OFFSET -7.06048 -1.2947 -1.0861
    CHANNELS 3 Zrotation Xrotation Yrotation
    JOINT RightUpLegRoll
    {
      OFFSET 0 18.5308 0
      CHANNELS 3 Zrotation Xrotation Yrotation
      JOINT RightLeg
      {
        OFFSET 0 -22.9476 0
        CHANNELS 3 Zrotation Xrotation Yrotation
        JOINT RightLegRoll
        {
          OFFSET 0 23.0226 0
          CHANNELS 3 Zrotation Xrotation Yrotation
          JOINT RightFoot
          {
            OFFSET 0 19.1625 0
            CHANNELS 3 Zrotation Xrotation Yrotation
            JOINT RightToeBase
            {
              OFFSET 0 16.0188 0
              CHANNELS 3 Zrotation Xrotation Yrotation
              End Site
              {
                OFFSET 0.00678979 7.75782 -0.894206
              }
            }
          }
        }
      }
    }
  }
  JOINT LeftUpLeg
  {
    OFFSET 7.06048 -1.2947 -1.0861
    CHANNELS 3 Zrotation Xrotation Yrotation
    JOINT LeftUpLegRoll
    {
      OFFSET 0 18.5309 0
      CHANNELS 3 Zrotation Xrotation Yrotation
      JOINT LeftLeg
      {
        OFFSET 0 22.9475 0
        CHANNELS 3 Zrotation Xrotation Yrotation
        JOINT LeftLegRoll
        {
          OFFSET 0 23.2355 0
          CHANNELS 3 Zrotation Xrotation Yrotation
          JOINT LeftFoot
          {
            OFFSET 0 18.9496 0
            CHANNELS 3 Zrotation Xrotation Yrotation
            JOINT LeftToeBase
            {
              OFFSET 0 16.0188 0
              CHANNELS 3 Zrotation Xrotation Yrotation
              End Site
              {
                OFFSET -0.0304289 7.75782 -0.894206
              }
            }
          }
        }
      }
    }
  }
}
MOTION
Frames: 10
Frame Time: 0.00208333
46.0367 119.768 15.1802 1.82297 4.36165 1.24082 0.092045 0.33251 -0.221803 0.188126 4.66746 -0.456265 0.193946 6.3125 -0.460005 -14.5711 -1.09207 -1.60475 14.5315 25.3906 -5.77797 60.1854 -6.11241 -3.85867 109.763 7.13174 -6.2623 2.6985e-014 3.18055e-015 -4.77083e-015 13.7219 49.6242 -8.56112 -2.81601e-006 -1.22641e-005 -3 8.0293 -4.95144 0.697677 -58.3217 -4.21819 2.5773 -110.87 15.4536 20.9517 3.72345e-006 2.57484e-006 -4.18301e-007 -19.6085 63.1627 16.014 -1.27226e-006 3.94522e-007 3 -8.02903 -4.95144 -0.697666 175.682 11.4868 1.62824 180 7.01553e-015 178.95 179.82 12.4824 179.326 -7.74764e-007 -3.5291e-006 0.0358236 -17.2253 65.9018 17.9425 8.13928 25.2325 -3.48893 -174.449 16.8653 -2.06883 4.5067e-006 -1.99009e-005 -0.927104 -3.05403 -18.7864 -0.0149569 -3.75384e-006 -3.03995e-006 -0.287718 19.3416 68.8657 -20.2764 -8.13649 25.2327 3.48774 
46.0481 119.548 15.1502 1.8175 4.3961 1.19268 0.0898843 0.333269 -0.220084 0.183761 4.66899 -0.452532 0.189528 6.31403 -0.456193 -14.6116 -1.11569 -1.59758 14.5392 25.3849 -5.77383 60.1291 -6.10517 -3.85141 109.784 7.13887 -6.25706 -9.79014e-015 4.77083e-015 2.78299e-015 13.7107 49.6525 -8.56172 -2.81601e-006 -1.22641e-005 -3 8.0293 -4.95144 0.697677 -58.3457 -4.22954 2.586 -110.864 15.451 20.8297 3.72345e-006 2.57484e-006 -4.18301e-007 -19.5264 63.1188 15.941 -1.27226e-006 3.94522e-007 3 -8.02903 -4.95144 -0.697666 175.694 11.5242 1.61419 180 7.01553e-015 178.952 179.809 12.4118 179.33 -7.74764e-007 -3.5291e-006 0.0354998 -17.2296 65.9087 17.9466 8.13928 25.2325 -3.48893 -174.398 16.9372 -2.1151 4.5067e-006 -1.99009e-005 -0.926149 -3.07668 -18.7856 -0.0193139 -3.75384e-006 -3.03995e-006 -0.287584 19.3356 68.8583 -20.2691 -8.13649 25.2327 3.48774 
46.0521 119.298 15.1498 1.81143 4.42851 1.14358 0.0877697 0.334689 -0.21886 0.179501 4.67184 -0.449795 0.185228 6.31688 -0.453382 -14.6563 -1.14503 -1.58988 14.5536 25.3805 -5.76998 60.0699 -6.09787 -3.84396 109.812 7.14853 -6.25219 3.86139e-014 6.36111e-015 -4.77083e-015 13.6981 49.6795 -8.56136 -2.81601e-006 -1.22641e-005 -3 8.0293 -4.95144 0.697677 -58.3709 -4.24865 2.59959 -110.851 15.4517 20.7187 3.72345e-006 2.57484e-006 -4.18301e-007 -19.4529 63.076 15.8744 -1.27226e-006 3.94522e-007 3 -8.02903 -4.95144 -0.697666 175.708 11.5608 1.59991 180 7.01554e-015 178.954 179.799 12.3446 179.333 -7.74764e-007 -3.5291e-006 0.0352017 -17.2336 65.9152 17.9503 8.13929 25.2325 -3.48893 -174.345 17.0085 -2.16261 4.5067e-006 -1.99009e-005 -0.92528 -3.09898 -18.7899 -0.0235679 -3.75384e-006 -3.03995e-006 -0.287467 19.3298 68.8511 -20.2621 -8.13649 25.2327 3.48774 
46.0524 119.078 15.1644 1.80464 4.45871 1.09328 0.0857172 0.33683 -0.218193 0.17538 4.67613 -0.448184 0.181081 6.32118 -0.4517 -14.7059 -1.18064 -1.58147 14.576 25.3779 -5.76648 60.0074 -6.09041 -3.83624 109.846 7.16144 -6.24744 -5.91384e-015 3.18055e-015 2.78299e-015 13.6838 49.7044 -8.55967 -2.81601e-006 -1.22641e-005 -3 8.0293 -4.95144 0.697677 -58.3974 -4.27682 2.6189 -110.831 15.4566 20.6201 3.72345e-006 2.57484e-006 -4.18301e-007 -19.389 63.0336 15.8148 -1.27226e-006 3.94522e-007 3 -8.02903 -4.95144 -0.697666 175.724 11.5964 1.58539 180 7.01554e-015 178.956 179.788 12.2811 179.336 -7.74764e-007 -3.5291e-006 0.0349318 -17.2372 65.9211 17.9537 8.13929 25.2325 -3.48893 -174.291 17.079 -2.21151 4.5067e-006 -1.99009e-005 -0.924499 -3.12091 -18.7997 -0.0277089 -3.75384e-006 -3.03995e-006 -0.287364 19.3244 68.8441 -20.2556 -8.13649 25.2327 3.48774 
46.0143 118.815 15.153 1.79666 4.48596 1.04173 0.0837443 0.339959 -0.218264 0.171435 4.6824 -0.44807 0.177128 6.32745 -0.451519 -14.7599 -1.22325 -1.57229 14.6049 25.3752 -5.76268 59.9423 -6.08278 -3.82829 109.888 7.17869 -6.24345 -4.52235e-015 6.36111e-015 2.78299e-015 13.668 49.7269 -8.55681 -2.81601e-006 -1.22641e-005 -3 8.0293 -4.95144 0.697677 -58.4253 -4.31442 2.64418 -110.804 15.4654 20.5345 3.72345e-006 2.57484e-006 -4.18301e-007 -19.3348 62.9928 15.7627 -1.27226e-006 3.94522e-007 3 -8.02903 -4.95144 -0.697666 175.742 11.6288 1.56966 180 7.01555e-015 178.958 179.777 12.2179 179.34 -7.74764e-007 -3.5291e-006 0.0345939 -17.2402 65.926 17.9563 8.13929 25.2325 -3.48893 -174.234 17.1475 -2.2629 4.5067e-006 -1.99009e-005 -0.923831 -3.14289 -18.8143 -0.0318065 -3.75384e-006 -3.03995e-006 -0.28726 19.3193 68.8373 -20.2496 -8.13649 25.2327 3.48774 
46.0337 118.58 15.1214 1.78728 4.50991 0.989171 0.0818454 0.3442 -0.219133 0.167655 4.69089 -0.449579 0.173361 6.33594 -0.452968 -14.8169 -1.27275 -1.56253 14.6382 25.3699 -5.75802 59.8759 -6.07507 -3.82018 109.935 7.20024 -6.24099 -1.07841e-014 1.59028e-015 2.38542e-015 13.6515 49.7479 -8.55335 -2.81601e-006 -1.22641e-005 -3 8.0293 -4.95144 0.697677 -58.4544 -4.36023 2.67463 -110.768 15.477 20.4605 3.72345e-006 2.57484e-006 -4.18301e-007 -19.2889 62.9546 15.7174 -1.27226e-006 3.94522e-007 3 -8.02903 -4.95144 -0.697666 175.763 11.656 1.55207 180 7.01555e-015 178.959 179.767 12.152 179.343 -7.74764e-007 -3.5291e-006 0.0341144 -17.2424 65.9298 17.9581 8.13929 25.2325 -3.48893 -174.174 17.2132 -2.31739 4.5067e-006 -1.99009e-005 -0.923288 -3.16529 -18.833 -0.0359234 -3.75384e-006 -3.03995e-006 -0.287152 19.3145 68.8306 -20.244 -8.13649 25.2327 3.48774 
46.0033 118.31 15.1218 1.77675 4.53099 0.935767 0.0800022 0.349403 -0.220682 0.164002 4.70131 -0.452471 0.169736 6.34635 -0.455803 -14.8767 -1.32848 -1.55235 14.6752 25.3626 -5.75272 59.8081 -6.06736 -3.81199 109.988 7.22514 -6.23999 3.85145e-014 4.77083e-015 -4.77083e-015 13.6344 49.7681 -8.54951 -2.81601e-006 -1.22641e-005 -3 8.0293 -4.95144 0.697677 -58.4846 -4.41312 2.70956 -110.725 15.4908 20.3968 3.72345e-006 2.57484e-006 -4.18301e-007 -19.2505 62.919 15.6782 -1.27226e-006 3.94522e-007 3 -8.02903 -4.95144 -0.697666 175.787 11.679 1.53301 180 7.01556e-015 178.961 179.758 12.0844 179.346 -7.74764e-007 -3.5291e-006 0.0335301 -17.2439 65.9327 17.9591 8.1393 25.2325 -3.48893 -174.111 17.2767 -2.37446 4.5067e-006 -1.99009e-005 -0.922858 -3.18796 -18.8557 -0.0400399 -3.75384e-006 -3.03995e-006 -0.287046 19.3099 68.824 -20.2387 -8.13649 25.2327 3.48774 
46.0243 118.069 15.1252 1.76535 4.54966 0.881701 0.078196 0.355416 -0.222793 0.160435 4.71334 -0.456503 0.166213 6.35839 -0.459781 -14.939 -1.38974 -1.54191 14.7159 25.3536 -5.74699 59.739 -6.05971 -3.80374 110.044 7.25243 -6.24038 1.0635e-014 4.77083e-015 -7.95139e-016 13.6168 49.7882 -8.54549 -2.81601e-006 -1.22641e-005 -3 8.0293 -4.95144 0.697677 -58.5157 -4.472 2.74827 -110.676 15.5061 20.3418 3.72345e-006 2.57484e-006 -4.18301e-007 -19.2186 62.8861 15.6446 -1.27226e-006 3.94522e-007 3 -8.02903 -4.95144 -0.697666 175.813 11.6987 1.51286 180 7.01556e-015 178.963 179.749 12.0162 179.348 -7.74764e-007 -3.5291e-006 0.0328776 -17.245 65.935 17.9596 8.1393 25.2325 -3.48893 -174.046 17.3386 -2.43356 4.5067e-006 -1.99009e-005 -0.922529 -3.21074 -18.8824 -0.0441361 -3.75384e-006 -3.03995e-006 -0.286953 19.3055 68.8175 -20.2336 -8.13649 25.2327 3.48774 
45.9944 117.787 15.1133 1.75334 4.56632 0.827155 0.0764086 0.36209 -0.225349 0.156916 4.7267 -0.461433 0.162748 6.37174 -0.464659 -15.0037 -1.45585 -1.53138 14.7597 25.3432 -5.74105 59.6685 -6.05221 -3.79548 110.104 7.28115 -6.24209 3.04638e-014 7.95139e-015 -3.57812e-015 13.599 49.809 -8.54152 -2.81601e-006 -1.22641e-005 -3 8.0293 -4.95144 0.697677 -58.5476 -4.53575 2.79006 -110.621 15.5225 20.2943 3.72345e-006 2.57484e-006 -4.18301e-007 -19.1923 62.8557 15.6158 -1.27226e-006 3.94522e-007 3 -8.02903 -4.95144 -0.697666 175.84 11.7162 1.49202 180 7.01556e-015 178.965 179.741 11.9485 179.351 -7.74764e-007 -3.5291e-006 0.0321936 -17.2458 65.9368 17.9598 8.1393 25.2325 -3.48893 -173.98 17.3995 -2.49414 4.5067e-006 -1.99009e-005 -0.922287 -3.23349 -18.9133 -0.0481923 -3.75384e-006 -3.03995e-006 -0.286879 19.3013 68.8109 -20.2287 -8.13649 25.2327 3.48774 
46.0169 117.534 15.1262 1.74097 4.58143 0.772309 0.0746213 0.369274 -0.228231 0.153407 4.74107 -0.467018 0.159301 6.38611 -0.470194 -15.0703 -1.52614 -1.52091 14.8063 25.3318 -5.73513 59.5966 -6.04492 -3.78728 110.166 7.31035 -6.24506 -3.62782e-015 7.95139e-015 2.18663e-015 13.5811 49.8313 -8.5378 -2.81601e-006 -1.22641e-005 -3 8.0293 -4.95144 0.697677 -58.5802 -4.60325 2.83425 -110.562 15.5393 20.2529 3.72345e-006 2.57484e-006 -4.18301e-007 -19.1706 62.8279 15.5912 -1.27226e-006 3.94522e-007 3 -8.02903 -4.95144 -0.697666 175.868 11.7323 1.47089 180 7.01557e-015 178.967 179.732 11.8825 179.354 -7.74764e-007 -3.5291e-006 0.0315148 -17.2464 65.9385 17.9599 8.1393 25.2325 -3.48893 -173.912 17.4599 -2.55565 4.5067e-006 -1.99009e-005 -0.922122 -3.25606 -18.9483 -0.0521886 -3.75384e-006 -3.03995e-006 -0.286833 19.2971 68.8043 -20.2239 -8.13649 25.2327 3.48774 
